<svg xmlns="http://www.w3.org/2000/svg" width="205" height="61" viewBox="0 0 205 61">
  <g fill="none" fill-rule="evenodd">
    <g fill="#FFFFFF" fill-rule="nonzero" stroke="#008CCD" stroke-width="2.168" transform="translate(1 2)">
      <path d="M12.8595227,42.7473182 C12.8595227,42.7473182 21.6821136,47.9798409 28.7370227,40.5209091 C28.7370227,40.5209091 45.2498864,45.8338409 46.4586591,30.1026591 C46.4586591,30.1026591 54.6972955,21.5502955 46.0375,14.5790909 C46.0375,14.5790909 48.6784773,3.91434091 36.7568409,4.42579545 C36.7568409,4.42579545 26.6892273,-6.11768182 16.8022045,5.40388636 C16.8022045,5.40388636 2.46763636,0.415886364 4.09756818,17.8396136 C4.09756818,17.8396136 -6.75634091,28.8615909 7.67247727,36.1452045 C7.67247727,36.1452045 8.25906818,40.1498409 12.4159545,42.46325 L12.8595227,42.7473182 Z"/>
      <path d="M36.0166818,44.0028864 C36.0166818,46.4645909 33.7434773,48.459 30.9403636,48.459 C28.1326364,48.459 25.8574545,46.46525 25.8574545,44.0028864 C25.8574545,41.5444773 28.1326364,39.5480909 30.9403636,39.5480909 C33.7434773,39.5480909 36.0166818,41.5438182 36.0166818,44.0028864 Z"/>
      <path d="M32.5004318,49.8187045 C32.5004318,51.6700909 30.8599545,53.1662273 28.8325909,53.1662273 C26.8091818,53.1662273 25.1693636,51.6694318 25.1693636,49.8187045 C25.1693636,47.9699545 26.8085227,46.4665682 28.8325909,46.4665682 C30.8592955,46.4665682 32.5004318,47.9699545 32.5004318,49.8187045 Z"/>
      <path d="M28.1438409,54.404 C28.1438409,55.9232045 26.9508864,57.1583409 25.4791364,57.1583409 C24.0080455,57.1583409 22.8131136,55.9232045 22.8131136,54.404 C22.8131136,52.8828182 24.0073864,51.6575682 25.4791364,51.6575682 C26.9515455,51.6575682 28.1438409,52.8828182 28.1438409,54.404 Z"/>
    </g>
    <g fill="#008CCD" fill-rule="nonzero" transform="translate(62 23)">
      <path d="M5.46777376 18.7146388C3.82756084 17.8820342 2.53462167 16.7095247 1.5881616 15.1974715.642098859 13.6846958.168868821 11.9718061.168868821 10.0573574.168868821 8.14363118.641701521 6.43038023 1.5881616 4.91796578 2.53422433 3.40519011 3.82756084 2.23304183 5.46777376 1.40007605 7.10758935.5678327 8.91587643.150988593 10.892635.150988593 12.7005247.150988593 14.2719981.462718631 15.6078498 1.08653992 16.9429068 1.71036122 18.0626065 2.60256654 18.9669487 3.76387833L16.7593365 4.88220532C16.1490247 4.06079848 15.3241502 3.39146388 14.2835209 2.87528517 13.2428916 2.35910646 12.1124639 2.10119772 10.8930323 2.10119772 9.3998346 2.10119772 8.04371863 2.43893536 6.82428707 3.11404943 5.60445817 3.78952471 4.6425019 4.73410646 3.93841825 5.94707224 3.23393726 7.16076046 2.88189544 8.53085551 2.88189544 10.0573574 2.88189544 11.5842205 3.23393726 12.9496198 3.93841825 14.1531939 4.6425019 15.3571293 5.60445817 16.3013498 6.82428707 16.9865779 8.04332129 17.6714449 9.39943726 18.0138783 10.8930323 18.0138783 12.1120665 18.0138783 13.2428916 17.7610266 14.2835209 17.2538783 15.3245475 16.7478137 16.1494221 16.0737833 16.7593365 15.2325095L18.9987357 16.3508365C16.9588004 18.7594297 14.2568992 19.9637262 10.8930323 19.9637262 8.91547909 19.9637262 7.10758935 19.5472433 5.46777376 18.7146388zM24.9274221 18.986635C23.7922262 18.335 22.9141084 17.4543536 22.2938631 16.3436122 21.6732205 15.2328707 21.3636939 14.0069011 21.3636939 12.6664259 21.3636939 11.3259506 21.6736179 10.099981 22.2938631 8.98887833 22.9141084 7.87777567 23.7922262 7.00146388 24.9274221 6.35994297 26.0630152 5.71842205 27.3873441 5.3976616 28.9012034 5.3976616 30.4154601 5.3976616 31.739789 5.71842205 32.8753821 6.35994297 34.0105779 7.00146388 34.8882985 7.87777567 35.5089411 8.98887833 36.1291863 10.099981 36.4395076 11.3255894 36.4395076 12.6664259 36.4395076 14.0069011 36.1291863 15.2325095 35.5089411 16.3436122 34.8882985 17.4543536 34.0105779 18.3353612 32.8753821 18.986635 31.739789 19.6375475 30.4154601 19.963365 28.9012034 19.963365 27.3873441 19.9637262 26.0630152 19.6375475 24.9274221 18.986635zM31.6138327 17.4084791C32.3707624 16.9092776 32.9488897 16.2388593 33.3486122 15.3968631 33.7475399 14.5552281 33.9477985 13.6446008 33.9477985 12.6657034 33.9477985 11.6871673 33.7475399 10.7819582 33.3486122 9.94971483 32.9488897 9.1178327 32.3711597 8.45211027 31.6138327 7.95290875 30.856903 7.45406844 29.9525608 7.20374525 28.9012034 7.20374525 27.849846 7.20374525 26.9403384 7.45370722 26.1730779 7.95290875 25.4050228 8.45211027 24.82173 9.1178327 24.4224049 9.94971483 24.0226825 10.781597 23.8232186 11.6871673 23.8232186 12.6657034 23.8232186 13.6446008 24.0226825 14.5548669 24.4224049 15.3968631 24.82173 16.2388593 25.4050228 16.9096388 26.1730779 17.4084791 26.9403384 17.9073194 27.8494487 18.1569202 28.9012034 18.1569202 29.9525608 18.1572814 30.856903 17.9073194 31.6138327 17.4084791zM40.3342186 5.99980989C40.6810951 5.69422053 41.0859829 5.54106464 41.5484848 5.54106464 42.0320456 5.54106464 42.4420989 5.69422053 42.7786445 5.99980989 43.1151901 6.30576046 43.2836616 6.67853612 43.2836616 7.11813688 43.2836616 7.53895437 43.1151901 7.906673 42.7786445 8.22201521 42.4420989 8.53735741 42.0320456 8.69520913 41.5484848 8.69520913 41.0859829 8.69520913 40.6810951 8.53735741 40.3342186 8.22201521 39.9873422 7.906673 39.8137053 7.53895437 39.8137053 7.11813688 39.8137053 6.67889734 39.9873422 6.30612167 40.3342186 5.99980989zM40.3342186 17.1819962C40.6810951 16.8764068 41.0859829 16.723251 41.5484848 16.723251 42.0320456 16.723251 42.4420989 16.8764068 42.7786445 17.1819962 43.1151901 17.488308 43.2836616 17.8607224 43.2836616 18.3003232 43.2836616 18.7211407 43.1151901 19.0892205 42.7786445 19.4045627 42.4420989 19.7199049 42.0320456 19.8777567 41.5484848 19.8777567 41.0859829 19.8777567 40.6810951 19.7199049 40.3342186 19.4045627 39.9873422 19.0892205 39.8137053 18.7211407 39.8137053 18.3003232 39.8137053 17.8607224 39.9873422 17.488308 40.3342186 17.1819962z"/>
    </g>
    <g fill="#008CCD" fill-rule="nonzero" transform="translate(107 22)">
      <polygon points="14.57 7.261 10.918 20.539 6.164 20.539 .15 1.202 5.156 1.202 8.84 15.176 12.838 1.202 16.333 1.202 20.3 15.176 23.953 1.202 28.99 1.202 23.008 20.539 18.254 20.539"/>
      <path d="M30.0603258 6.53616054L34.0588235 6.53616054 34.0588235 8.44960182C34.6041994 7.81154457 35.318146 7.27538657 36.1994735 6.84039734 37.0811976 6.40577334 37.9831501 6.18809611 38.9069177 6.18809611L38.9069177 9.57998944C38.6340315 9.52191783 38.2663489 9.49306464 37.8050601 9.49306464 37.133157 9.49306464 36.4200037 9.64609611 35.6644101 9.95252429 34.9088166 10.2585872 34.3733567 10.6380615 34.0588235 11.0920427L34.0588235 20.5387231 30.0603258 20.5387231 30.0603258 6.53616054zM41.6928961 3.82578686C41.220898 3.39079763 40.9845024 2.87399683 40.9845024 2.27465399 40.9845024 1.67567638 41.220898 1.15851035 41.6928961.723521124 42.1648941.288897127 42.7261355.0712198986 43.3774135.0712198986 44.0485233.0712198986 44.6153176.284149134 45.0773997.708911914 45.5386885 1.13440515 45.7699279 1.65595395 45.7699279 2.27428876 45.7699279 2.8736316 45.5386885 3.3904324 45.0773997 3.82542163 44.6153176 4.26004563 44.0485233 4.47772286 43.3774135 4.47772286 42.7265321 4.47772286 42.1652908 4.26041086 41.6928961 3.82578686zM41.3938318 6.53616054L45.3923295 6.53616054 45.3923295 20.5387231 41.3938318 20.5387231 41.3938318 6.53616054zM51.2482783 19.8915351C50.5129133 19.2089197 50.1464207 18.2253547 50.1464207 16.939379L50.1464207 9.34843346 47.627379 9.34843346 47.627379 6.53616054 50.1464207 6.53616054 50.1464207 2.70927799 54.1762527 2.70927799 54.1762527 6.53616054 57.2616921 6.53616054 57.2616921 9.34843346 54.1762527 9.34843346 54.1762527 16.3915336C54.1762527 16.8867858 54.3019867 17.2962089 54.5538512 17.6187072 54.8061123 17.9423012 55.1412706 18.1033678 55.5613092 18.1033678 55.8552172 18.1033678 56.1281035 18.0650186 56.379968 17.9875898 56.6318325 17.9105262 56.8206317 17.8133749 56.9467623 17.697597L57.7967554 20.1442744C57.061787 20.6581534 55.9496168 20.9156407 54.4594516 20.9156407 53.0529767 20.9160059 51.9828501 20.5741504 51.2482783 19.8915351zM60.0322016 9.83382446C60.703708 8.72060266 61.6377882 7.83491931 62.8340454 7.17604394 64.0306993 6.5175338 65.3844214 6.18809611 66.8956084 6.18809611 68.3857737 6.18809611 69.7077648 6.51205534 70.8623752 7.15924335 72.0165889 7.80679658 72.9137818 8.71512421 73.5543506 9.88422624 74.1941261 11.0536935 74.5146088 12.3918971 74.5146088 13.8995676L74.5146088 14.7114744 63.2120405 14.7114744C63.3377744 15.7220665 63.7887507 16.5639223 64.5657626 17.2374068 65.3419812 17.9116219 66.3494393 18.2483642 67.5881366 18.2483642 68.3227084 18.2483642 69.0624364 18.122725 69.8077174 17.8714466 70.5526017 17.6201681 71.1665958 17.2823302 71.6496996 16.8568369L73.4127512 19.1464654C72.6571576 19.7275467 71.7282338 20.1680144 70.6267728 20.4667727 69.5249152 20.7655311 68.3647519 20.9156407 67.1478696 20.9156407 65.6156608 20.9156407 64.2302077 20.6103082 62.991907 20.0003737 61.7532096 19.3908044 60.7826388 18.528861 60.0794014 17.415274 59.376164 16.3016869 59.0247436 15.0095023 59.0247436 13.5376244 59.0243469 12.182255 59.3599018 10.9474115 60.0322016 9.83382446zM64.2508328 9.82432847C63.6209733 10.4704208 63.2616201 11.210012 63.1723768 12.0445632L70.641845 12.0445632C70.5791763 11.2300997 70.2372752 10.4948912 69.6185215 9.83893768 68.9993711 9.18371462 68.091469 8.85573785 66.8956084 8.85573785 65.7620198 8.85573785 64.8806924 9.17860139 64.2508328 9.82432847zM77.4108522 6.53616054L81.4093499 6.53616054 81.4093499 8.44960182C81.9547258 7.81154457 82.6686725 7.27538657 83.5499999 6.84039734 84.431724 6.40577334 85.3336765 6.18809611 86.2574441 6.18809611L86.2574441 9.57998944C85.9845579 9.52191783 85.6168754 9.49306464 85.1555865 9.49306464 84.4836834 9.49306464 83.7705301 9.64609611 83.0149366 9.95252429 82.2593431 10.2585872 81.7238831 10.6380615 81.4093499 11.0920427L81.4093499 20.5387231 77.4108522 20.5387231 77.4108522 6.53616054z"/>
    </g>
    <path fill="#008CCD" fill-rule="nonzero" d="M196.621757,31.7077283 C195.840114,31.2833308 195.220422,30.7099193 194.76189,29.9878591 C194.302961,29.2657989 194.073299,28.4732493 194.073299,27.6094797 C194.073299,26.7460754 194.302961,25.9531605 194.76189,25.2311003 C195.220422,24.5090401 195.84051,23.9359939 196.621757,23.5115963 C197.402609,23.0871988 198.260278,22.875 199.193974,22.875 C200.127669,22.875 200.984943,23.0871988 201.766586,23.5115963 C202.547438,23.9359939 203.167526,24.5090401 203.626454,25.2311003 C204.085382,25.9531605 204.314649,26.7460754 204.314649,27.6094797 C204.314649,28.4732493 204.085382,29.2657989 203.626454,29.9878591 C203.167526,30.7099193 202.547042,31.2833308 201.766586,31.7077283 C200.984943,32.1321259 200.127669,32.3439594 199.193974,32.3439594 C198.260278,32.3439594 197.402609,32.1321259 196.621757,31.7077283 Z M196.959915,24.1251831 C196.275284,24.4831088 195.735974,24.9692302 195.341589,25.5824518 C194.946807,26.1960387 194.749615,26.8684275 194.749615,27.598888 C194.749615,28.3293485 194.946807,29.0013722 195.341589,29.614959 C195.735974,30.2285458 196.275284,30.7183196 196.959915,31.0835499 C197.644546,31.4487801 198.388572,31.6313952 199.19437,31.6313952 C199.999375,31.6313952 200.740234,31.4487801 201.416549,31.0835499 C202.092865,30.7183196 202.628216,30.2289111 203.022997,29.614959 C203.417382,29.0013722 203.614971,28.3293485 203.614971,27.598888 C203.614971,26.8684275 203.417382,26.1964039 203.022997,25.5824518 C202.628216,24.968865 202.092865,24.4831088 201.416549,24.1251831 C200.740234,23.7676227 199.999375,23.5879294 199.19437,23.5879294 C198.388572,23.5879294 197.64415,23.7672575 196.959915,24.1251831 Z M199.073599,28.200057 L198.010422,28.200057 L198.010422,30.3388454 L197.23749,30.3388454 L197.23749,24.9246722 L199.629144,24.9246722 C200.1443,24.9246722 200.583034,25.0769732 200.945346,25.38121 C201.307658,25.685812 201.489012,26.0831825 201.489012,26.5733215 C201.489012,26.9447607 201.395959,27.2493627 201.211041,27.4867624 C201.025728,27.7245272 200.8123,27.8987421 200.571155,28.0105025 C200.329614,28.1218978 200.135985,28.177778 199.991456,28.177778 L201.561474,30.3388454 L200.595309,30.3388454 L199.073599,28.200057 Z M198.010422,25.6376016 L198.010422,27.4867624 L199.629144,27.4867624 C199.934436,27.4867624 200.188253,27.4009332 200.389801,27.2296403 C200.591349,27.0583473 200.691926,26.8428614 200.691926,26.5824523 C200.691926,26.3088948 200.591349,26.0828173 200.389801,25.9045849 C200.188253,25.7263526 199.934832,25.6372364 199.629144,25.6372364 L198.010422,25.6372364 L198.010422,25.6376016 Z"/>
  </g>
</svg>
