<svg xmlns="http://www.w3.org/2000/svg" width="261" height="68" viewBox="0 0 261 68">
  <path fill="#2B5CA3" d="M30.04,0.03 C13.4811225,0.03 0.0575,13.4536225 0.0575,30.0125 C0.0575,46.5713775 13.4811225,59.995 30.04,59.995 C46.5988775,59.995 60.0225,46.5713775 60.0225,30.0125 C60.0225,13.4536225 46.5988775,0.03 30.04,0.03 Z M45.325,43.84 C41.0525,46.59 36.3675,46.495 28.1375,45.3275 C22.4175,44.515 18.56,44.7875 16.1525,45.2425 C15.765,44.89 15.4025,44.5175 15.035,44.1375 C18.97,43.26 25.6275,42.455 34.285,43.9625 C39.565,44.7525 42.9625,44.815 45.4725,43.6775 L45.325,43.84 Z M29.9575,40.7075 C22.59,40.08 17.355,41.78 14.28,43.2925 C14.13,43.115 13.9825,42.9325 13.8375,42.7475 C25.3375,35.7475 31.755,39.955 42.9675,38.695 C45.1717808,38.4564162 47.3342703,37.9242016 49.3975,37.1125 C43.705,40.6725 38.445,41.43 29.9575,40.7075 Z M30.04,9.4 C35.5067749,9.4 40.7496449,11.5716679 44.6152385,15.4372615 C48.4808321,19.3028551 50.6525,24.5457251 50.6525,30.0125 C50.6516925,30.7507727 50.611636,31.4884804 50.5325,32.2225 C42.9025,33.3825 34.4925,31.785 25.94,33.3475 C18.985,34.6175 14.92,38.295 12.7175,41.1825 C8.6251952,34.8419375 8.32595345,26.7716528 11.9374572,20.1454372 C15.548961,13.5192217 22.4934986,9.39703322 30.04,9.4 Z M16.845,45.845 C20.1375,45.97 23.99,46.95 27.03,47.8175 L34.11,50.2225 C27.9890904,51.4511845 21.6410381,49.8416508 16.845,45.845 Z M17.0275,34.6825 C14.9091739,32.0374207 14.844388,28.2955058 16.8698804,25.5786821 C18.8953728,22.8618585 22.5000499,21.8556638 25.6398081,23.1306807 C28.7795664,24.4056976 30.6621489,27.6402002 30.22,31 C28.4886399,31.0999186 26.7647597,31.3027771 25.0575,31.6075 C22.2064725,32.101057 19.4789628,33.1455268 17.0275,34.6825 Z M37.9125,26.605 C37.9125,24.7040274 39.0576182,22.9902369 40.8138879,22.2627662 C42.5701575,21.5352955 44.5917113,21.9374075 45.9359019,23.2815981 C47.2800925,24.6257887 47.6822045,26.6473425 46.9547338,28.4036121 C46.2272631,30.1598818 44.5134726,31.305 42.6125,31.305 C40.017738,31.3036198 37.9149996,29.1997623 37.915,26.605 L37.9125,26.605 Z M69.2975,17.7325 C70.1586056,17.7201166 71.014604,17.8667382 71.8225,18.165 C72.5421719,18.4330733 73.1954141,18.853502 73.7375,19.3975 C74.2760512,19.9512126 74.6902709,20.6134527 74.9525,21.34 C75.2464054,22.1627078 75.3903516,23.0314651 75.3775,23.905 C75.3898381,24.7573061 75.2457895,25.6046506 74.9525,26.405 C74.4220472,27.8581463 73.277722,29.0033862 71.825,29.535 C71.017104,29.8332618 70.1611056,29.9798834 69.3,29.9675 L65.275,29.9675 L65.275,17.7325 L69.2975,17.7325 Z M69,27.88 C69.6196972,27.8900947 70.238115,27.8203546 70.84,27.6725 C71.321016,27.5549983 71.7652089,27.3195847 72.1325,26.9875 C72.4836319,26.6474414 72.7418331,26.2231307 72.8825,25.755 C73.0619015,25.1543097 73.146254,24.5292572 73.1325,23.9025 C73.149688,23.2495915 73.0445452,22.599232 72.8225,21.985 C72.6398082,21.4987095 72.3421748,21.0638387 71.955,20.7175 C71.5766729,20.3900559 71.1286441,20.1532162 70.645,20.025 C70.1051338,19.8819335 69.5484754,19.812141 68.99,19.8175 L67.49,19.8175 L67.49,27.8775 L69,27.88 Z M78.3775,23.85 C78.3727808,23.0135663 78.5360048,22.1846946 78.8575,21.4125 C79.1605921,20.669102 79.6026526,19.9903143 80.16,19.4125 C80.7145976,18.8453752 81.373269,18.3904166 82.1,18.0725 C83.6144887,17.4121849 85.3355113,17.4121849 86.85,18.0725 C87.576731,18.3904166 88.2354024,18.8453752 88.79,19.4125 C89.3473474,19.9903143 89.7894079,20.669102 90.0925,21.4125 C90.7305124,22.9748754 90.7305124,24.7251246 90.0925,26.2875 C89.789626,27.0310121 89.3475399,27.7098391 88.79,28.2875 C88.235524,28.8547688 87.5768228,29.309748 86.85,29.6275 C85.3354482,30.2875122 83.6145518,30.2875122 82.1,29.6275 C81.3731772,29.309748 80.714476,28.8547688 80.16,28.2875 C79.6024601,27.7098391 79.160374,27.0310121 78.8575,26.2875 C78.5381161,25.5149126 78.3774281,24.6859665 78.385,23.85 L78.3775,23.85 Z M80.6075,23.85 C80.6037201,24.4065866 80.7055183,24.9588418 80.9075,25.4775 C81.0971775,25.9708458 81.3797907,26.4231966 81.74,26.81 C82.0882544,27.1837943 82.5060491,27.486101 82.97,27.7 C83.4397963,27.9179782 83.9521127,28.0289801 84.47,28.025 C84.9876577,28.0267782 85.4995013,27.9158787 85.97,27.7 C86.4412295,27.4885779 86.8660336,27.1861175 87.22,26.81 C87.579718,26.4228202 87.8622687,25.9705693 88.0525,25.4775 C88.2541323,24.9587426 88.3559181,24.4065547 88.3525,23.85 C88.3567311,23.2958092 88.2549008,22.7459257 88.0525,22.23 C87.8606574,21.7407257 87.5782166,21.2920436 87.22,20.9075 C86.8647839,20.5302527 86.4404348,20.2247213 85.97,20.0075 C85.5007981,19.7869365 84.9884554,19.6733672 84.47,19.675 C83.9512994,19.6710704 83.4384536,19.7847513 82.97,20.0075 C82.5068619,20.227164 82.0895096,20.5325438 81.74,20.9075 C81.3813039,21.2916743 81.0988023,21.740453 80.9075,22.23 C80.7073031,22.7463271 80.6080089,23.2962639 80.615,23.85 L80.6075,23.85 Z M103.7875,29.825 L101.9125,30.1125 L96.1625,21.53 L96.1625,29.97 L94.11,29.97 L94.11,17.875 L96.1625,17.5875 C97.2475,19.1708333 98.2091667,20.5925 99.0475,21.8525 C99.4025,22.3925 99.7533333,22.9175 100.1,23.4275 C100.446667,23.9375 100.753333,24.3933333 101.02,24.795 C101.285,25.1966667 101.5825,25.6375 101.9125,26.1175 L101.9125,17.7325 L103.7875,17.7325 L103.7875,29.825 Z M121.08,17.7325 L121.08,25.055 C121.081893,25.6984383 121.043485,26.3413635 120.965,26.98 C120.902587,27.5413753 120.739121,28.086827 120.4825,28.59 C120.24101,29.0495199 119.876634,29.4329362 119.43,29.6975 C118.866805,29.998181 118.232694,30.1407265 117.595,30.11 C116.995406,30.1185273 116.401847,29.9893813 115.86,29.7325 C115.360892,29.4982361 114.919581,29.1567964 114.5675,28.7325 L116.195,27.06 C116.297715,27.332999 116.460971,27.579166 116.6725,27.78 C116.897806,27.9599632 117.18228,28.04914 117.47,28.03 C117.744626,28.0451546 118.016945,27.9724779 118.2475,27.8225 C118.452171,27.6603553 118.597966,27.435515 118.6625,27.1825 C118.760617,26.8305712 118.814367,26.4677597 118.8225,26.1025 C118.839167,25.6708333 118.848333,25.1708333 118.85,24.6025 L118.85,19.8175 L116.7625,19.8175 L117.0625,17.73 L121.08,17.7325 Z M124.8825,23.85 C124.877781,23.0135663 125.041005,22.1846946 125.3625,21.4125 C125.665592,20.669102 126.107653,19.9903143 126.665,19.4125 C127.219598,18.8453752 127.878269,18.3904166 128.605,18.0725 C130.119489,17.4121849 131.840511,17.4121849 133.355,18.0725 C134.081731,18.3904166 134.740402,18.8453752 135.295,19.4125 C135.852347,19.9903143 136.294408,20.669102 136.5975,21.4125 C137.235512,22.9748754 137.235512,24.7251246 136.5975,26.2875 C136.294626,27.0310121 135.85254,27.7098391 135.295,28.2875 C134.740524,28.8547688 134.081823,29.309748 133.355,29.6275 C131.840448,30.2875122 130.119552,30.2875122 128.605,29.6275 C127.878177,29.309748 127.219476,28.8547688 126.665,28.2875 C126.10746,27.7098391 125.665374,27.0310121 125.3625,26.2875 C125.04226,25.5150898 124.88072,24.6861372 124.8875,23.85 L124.8825,23.85 Z M127.1125,23.85 C127.10872,24.4065866 127.210518,24.9588418 127.4125,25.4775 C127.602178,25.9708458 127.884791,26.4231966 128.245,26.81 C128.593254,27.1837943 129.011049,27.486101 129.475,27.7 C129.944796,27.9179782 130.457113,28.0289801 130.975,28.025 C131.492658,28.0267782 132.004501,27.9158787 132.475,27.7 C132.94623,27.4885779 133.371034,27.1861175 133.725,26.81 C134.084718,26.4228202 134.367269,25.9705693 134.5575,25.4775 C134.759132,24.9587426 134.860918,24.4065547 134.8575,23.85 C134.861731,23.2958092 134.759901,22.7459257 134.5575,22.23 C134.365657,21.7407257 134.083217,21.2920436 133.725,20.9075 C133.369784,20.5302527 132.945435,20.2247213 132.475,20.0075 C132.005798,19.7869365 131.493455,19.6733672 130.975,19.675 C130.456299,19.6710704 129.943454,19.7847513 129.475,20.0075 C129.011862,20.227164 128.59451,20.5325438 128.245,20.9075 C127.886304,21.2916743 127.603802,21.740453 127.4125,22.23 C127.211449,22.7461593 127.111306,23.2961016 127.1175,23.85 L127.1125,23.85 Z M150.415,17.7325 L150.415,29.9675 L148.2025,29.9675 L148.2025,24.82 L143.025,24.82 L143.025,29.965 L140.795,29.965 L140.795,17.7325 L143.025,17.7325 L143.025,22.7325 L148.21,22.7325 L148.21,17.7325 L150.415,17.7325 Z M164.6225,29.825 L162.7475,30.1125 L156.9975,21.53 L156.9975,29.97 L154.95,29.97 L154.95,17.875 L157.0025,17.5875 C158.0875,19.1708333 159.049167,20.5925 159.8875,21.8525 C160.2425,22.3925 160.593333,22.9175 160.94,23.4275 C161.286667,23.9375 161.593333,24.3933333 161.86,24.795 C162.125,25.1966667 162.4225,25.6375 162.7525,26.1175 L162.7525,17.7325 L164.6275,17.7325 L164.6225,29.825 Z M172.1425,17.59 C172.555755,17.5903666 172.966747,17.6510048 173.3625,17.77 C173.725834,17.8755545 174.08095,18.0075742 174.425,18.165 C174.784309,18.3294846 175.133286,18.5156614 175.47,18.7225 L174.3025,20.415 C174.076244,20.2192778 173.823816,20.0560412 173.5525,19.93 C173.126505,19.7450288 172.663969,19.6595325 172.2,19.68 C171.814997,19.6533251 171.435517,19.7831234 171.1475,20.04 C170.925128,20.2374139 170.79399,20.5177787 170.785,20.815 C170.788591,21.2571802 170.987104,21.6752469 171.3275,21.9575 C171.785157,22.357115 172.28182,22.7097204 172.81,23.01 C173.283333,23.2983333 173.7125,23.5741667 174.0975,23.8375 C174.45827,24.0798972 174.78674,24.3672032 175.075,24.6925 C175.33762,24.9928583 175.544987,25.3373415 175.6875,25.71 C175.837436,26.1309689 175.909445,26.5757266 175.9,27.0225 C175.913491,27.5083169 175.799729,27.989219 175.57,28.4175 C175.357563,28.7991902 175.06192,29.1281567 174.705,29.38 C174.338174,29.6365638 173.928375,29.8253762 173.495,29.9375 C173.055617,30.0560673 172.602599,30.1165819 172.1475,30.1175 C171.620872,30.1273032 171.096751,30.042631 170.6,29.8675 C170.176889,29.7144834 169.770595,29.5184569 169.3875,29.2825 C168.986072,29.0424242 168.612172,28.759065 168.2725,28.4375 L169.6875,27.015 C169.908051,27.2167367 170.151358,27.3920859 170.4125,27.5375 C170.657267,27.6787476 170.915138,27.7959613 171.1825,27.8875 C171.481513,27.991082 171.796065,28.0426617 172.1125,28.04 C172.504314,28.0555429 172.892053,27.9555653 173.2275,27.7525 C173.51958,27.565684 173.688612,27.2362146 173.67,26.89 C173.675406,26.6605775 173.620217,26.4337862 173.51,26.2325 C173.39676,26.0377966 173.250396,25.8643592 173.0775,25.72 C172.869905,25.5479944 172.647353,25.3948854 172.4125,25.2625 L171.58,24.785 C171.203333,24.5683333 170.831667,24.3316667 170.465,24.075 C170.107318,23.8238394 169.780849,23.53094 169.4925,23.2025 C169.207899,22.8759024 168.978241,22.5052419 168.8125,22.105 C168.636444,21.6588574 168.551442,21.1819961 168.5625,20.7025 C168.5736,19.9283337 168.880395,19.1877328 169.42,18.6325 C169.736477,18.3088927 170.115962,18.0536333 170.535,17.8825 C171.048262,17.6774092 171.597377,17.5771065 172.15,17.5875 L172.1425,17.59 Z M181.75,19.8175 L178.91,19.8175 L178.91,17.73 L186.82,17.73 L186.82,19.8175 L184,19.8175 L184,29.965 L181.77,30.11 L181.75,19.8175 Z M189.02,23.8475 C189.015281,23.0110663 189.178505,22.1821946 189.5,21.41 C189.803092,20.666602 190.245153,19.9878143 190.8025,19.41 C191.357098,18.8428752 192.015769,18.3879166 192.7425,18.07 C194.256989,17.4096849 195.978011,17.4096849 197.4925,18.07 C198.219231,18.3879166 198.877902,18.8428752 199.4325,19.41 C199.989847,19.9878143 200.431908,20.666602 200.735,21.41 C201.373012,22.9723754 201.373012,24.7226246 200.735,26.285 C200.432126,27.0285121 199.99004,27.7073391 199.4325,28.285 C198.878024,28.8522688 198.219323,29.307248 197.4925,29.625 C195.977948,30.2850122 194.257052,30.2850122 192.7425,29.625 C192.015677,29.307248 191.356976,28.8522688 190.8025,28.285 C190.24496,27.7073391 189.802874,27.0285121 189.5,26.285 C189.181801,25.5130122 189.021971,24.6849557 189.03,23.85 L189.02,23.8475 Z M191.25,23.8475 C191.24622,24.4040866 191.348018,24.9563418 191.55,25.475 C191.739678,25.9683458 192.022291,26.4206966 192.3825,26.8075 C192.730754,27.1812943 193.148549,27.483601 193.6125,27.6975 C194.082296,27.9154782 194.594613,28.0264801 195.1125,28.0225 C195.630158,28.0242782 196.142001,27.9133787 196.6125,27.6975 C197.08373,27.4860779 197.508534,27.1836175 197.8625,26.8075 C198.222218,26.4203202 198.504769,25.9680693 198.695,25.475 C198.896632,24.9562426 198.998418,24.4040547 198.995,23.8475 C198.999231,23.2933092 198.897401,22.7434257 198.695,22.2275 C198.503157,21.7382257 198.220717,21.2895436 197.8625,20.905 C197.507284,20.5277527 197.082935,20.2222213 196.6125,20.005 C196.143298,19.7844365 195.630955,19.6708672 195.1125,19.6725 C194.593799,19.6685704 194.080954,19.7822513 193.6125,20.005 C193.149362,20.224664 192.73201,20.5300438 192.3825,20.905 C192.023804,21.2891743 191.741302,21.737953 191.55,22.2275 C191.346926,22.7441045 191.245077,23.2949369 191.25,23.85 L191.25,23.8475 Z M214.4275,29.8225 L212.5525,30.11 L206.8025,21.5275 L206.8025,29.9675 L204.75,29.9675 L204.75,17.875 L206.8025,17.5875 C207.8875,19.1708333 208.849167,20.5925 209.6875,21.8525 C210.0425,22.3925 210.393333,22.9175 210.74,23.4275 C211.086667,23.9375 211.393333,24.3933333 211.66,24.795 C211.925,25.1966667 212.2225,25.6375 212.5525,26.1175 L212.5525,17.7325 L214.4275,17.7325 L214.4275,29.8225 Z M109.8925,21.52 C108.821068,21.52 107.9525,22.3885676 107.9525,23.46 C107.9525,24.5314324 108.821068,25.4 109.8925,25.4 C110.963932,25.4 111.8325,24.5314324 111.8325,23.46 C111.8325,22.94548 111.628108,22.4520334 111.264287,22.0882128 C110.900467,21.7243923 110.40702,21.52 109.8925,21.52 Z M70.6625,43.75 L70.6625,40.335 L66.3225,40.335 L66.3225,43.75 L65.3975,43.75 L65.3975,36.325 L66.3225,36.325 L66.3225,39.5 L70.6625,39.5 L70.6625,36.3175 L71.5875,36.3175 L71.5875,43.75 L70.6625,43.75 Z M79.12,43.75 L79.12,43 C78.6340273,43.551162 77.9396354,43.8738819 77.205,43.89 C76.08,43.89 75.49,43.3325 75.49,42.175 L75.49,38.365 L76.325,38.365 L76.325,41.905 C76.325,42.85 76.8025,43.13 77.5375,43.13 C78.1601722,43.1129522 78.7414104,42.814056 79.1175,42.3175 L79.1175,38.3675 L79.9525,38.3675 L79.9525,43.75 L79.12,43.75 Z M90.315,43.75 L90.315,40.1 C90.315,39.42 90.025,38.9875 89.315,38.9875 C88.737511,39.0237316 88.2102357,39.3280712 87.89,39.81 L87.89,43.75 L87.055,43.75 L87.055,40.1 C87.055,39.42 86.7775,38.9875 86.055,38.9875 C85.4809069,39.0341061 84.9600892,39.3419877 84.6425,39.8225 L84.6425,43.75 L83.8075,43.75 L83.8075,38.375 L84.6425,38.375 L84.6425,39.155 C85.0636513,38.6087506 85.7035198,38.2751049 86.3925,38.2425 C87.205,38.2425 87.6725,38.6875 87.8275,39.2425 C88.2313303,38.6373607 88.9028314,38.264822 89.63,38.2425 C90.61,38.2425 91.13,38.7875 91.13,39.8675 L91.13,43.75 L90.315,43.75 Z M98.3825,43.75 L98.3825,43.1375 C97.9273795,43.6357525 97.2769573,43.9098068 96.6025,43.8875 C95.7025,43.8875 94.7325,43.275 94.7325,42.1075 C94.7325,40.895 95.69,40.3375 96.6025,40.3375 C97.2733441,40.3040735 97.9247344,40.5684721 98.3825,41.06 L98.3825,40.0925 C98.3825,39.38 97.805,38.9675 97.025,38.9675 C96.390742,38.9558304 95.785199,39.2314949 95.3775,39.7175 L95,39.1225 C95.5541947,38.5303181 96.3368792,38.2059459 97.1475,38.2325 C98.295,38.2325 99.23,38.7325 99.23,40.0475 L99.23,43.75 L98.3825,43.75 Z M98.3825,42.615 L98.3825,41.59 C98.0218676,41.1535572 97.4782293,40.9103993 96.9125,40.9325 C96.1225,40.9325 95.5775,41.4325 95.5775,42.1 C95.5775,42.7675 96.1225,43.28 96.9125,43.28 C97.4828039,43.3022554 98.0296184,43.0515935 98.385,42.605 L98.3825,42.615 Z M106.75,43.75 L106.75,40.225 C106.75,39.2675 106.25,38.975 105.5375,38.975 C104.908042,38.9994391 104.323087,39.30615 103.945,39.81 L103.945,43.75 L103.11,43.75 L103.11,38.375 L103.945,38.375 L103.945,39.155 C104.429436,38.5931915 105.128426,38.2618521 105.87,38.2425 C106.9825,38.2425 107.5725,38.81 107.5725,39.9775 L107.5725,43.75 L106.75,43.75 Z M116.455,43.75 L116.455,36.325 L117.38,36.325 L117.38,42.925 L120.83,42.925 L120.83,43.75 L116.455,43.75 Z M123.6875,41.0575 C123.6875,39.5 124.8,38.2425 126.3375,38.2425 C127.9625,38.2425 128.92,39.5125 128.92,41.125 L128.92,41.3375 L124.57,41.3375 C124.6375,42.35 125.3375,43.195 126.495,43.195 C127.121598,43.1978729 127.72317,42.949319 128.165,42.505 L128.565,43.05 C127.993458,43.6039525 127.223195,43.9048506 126.4275,43.885 C124.8275,43.875 123.68,42.7275 123.68,41.0475 L123.6875,41.0575 Z M126.325,38.9325 C125.18,38.9325 124.61,39.9 124.575,40.7125 L128.1025,40.7125 C128.113507,40.2353453 127.929149,39.7743964 127.592132,39.4364356 C127.255115,39.0984748 126.794684,38.9128274 126.3175,38.9225 L126.325,38.9325 Z M135.825,43.7525 L135.825,43.14 C135.369879,43.6382525 134.719457,43.9123068 134.045,43.89 C133.145,43.89 132.175,43.2775 132.175,42.11 C132.175,40.8975 133.1325,40.34 134.045,40.34 C134.715844,40.3065735 135.367234,40.5709721 135.825,41.0625 L135.825,40.095 C135.825,39.3825 135.2475,38.97 134.4675,38.97 C133.833242,38.9583304 133.227699,39.2339949 132.82,39.72 L132.43,39.1425 C132.984195,38.5503181 133.766879,38.2259459 134.5775,38.2525 C135.725,38.2525 136.66,38.7525 136.66,40.0675 L136.66,43.75 L135.825,43.7525 Z M135.825,42.6175 L135.825,41.5925 C135.464368,41.1560572 134.920729,40.9128993 134.355,40.935 C133.565,40.935 133.02,41.435 133.02,42.1025 C133.02,42.77 133.565,43.2825 134.355,43.2825 C134.924004,43.3025461 135.468692,43.0510803 135.8225,42.605 L135.825,42.6175 Z M140.54,43.75 L140.54,38.375 L141.375,38.375 L141.375,39.2325 C141.788258,38.6456058 142.450381,38.2836083 143.1675,38.2525 L143.1675,39.11 C143.060541,39.0961126 142.952851,39.0885993 142.845,39.0875 C142.250332,39.1356711 141.709644,39.4510727 141.375,39.945 L141.375,43.75 L140.54,43.75 Z M150.055,43.75 L150.055,40.225 C150.055,39.2675 149.555,38.975 148.8425,38.975 C148.213042,38.9994391 147.628087,39.30615 147.25,39.81 L147.25,43.75 L146.415,43.75 L146.415,38.375 L147.25,38.375 L147.25,39.155 C147.734436,38.5931915 148.433426,38.2618521 149.175,38.2425 C150.2875,38.2425 150.8775,38.81 150.8775,39.9775 L150.8775,43.75 L150.055,43.75 Z M154.6175,37.05 C154.618869,36.7371473 154.872147,36.4838692 155.185,36.4825 C155.334396,36.4831535 155.477337,36.5434754 155.582034,36.6500502 C155.686731,36.7566249 155.744502,36.900616 155.7425,37.05 C155.744539,37.1984738 155.686457,37.3414638 155.581461,37.4464606 C155.476464,37.5514573 155.333474,37.6095388 155.185,37.6075 C155.034305,37.6088591 154.889423,37.5494241 154.783097,37.4426275 C154.67677,37.3358308 154.617976,37.1906874 154.62,37.04 L154.6175,37.05 Z M154.7625,43.75 L154.7625,38.375 L155.5975,38.375 L155.5975,43.75 L154.7625,43.75 Z M163.11,43.75 L163.11,40.225 C163.11,39.2675 162.61,38.975 161.8975,38.975 C161.268042,38.9994391 160.683087,39.30615 160.305,39.81 L160.305,43.75 L159.47,43.75 L159.47,38.375 L160.305,38.375 L160.305,39.155 C160.789436,38.5931915 161.488426,38.2618521 162.23,38.2425 C163.3425,38.2425 163.9325,38.81 163.9325,39.9775 L163.9325,43.75 L163.11,43.75 Z M167.8075,45.12 L168.23,44.52 C168.675,45.0425 169.21,45.2425 169.98,45.2425 C170.87,45.2425 171.715,44.8075 171.715,43.6725 L171.715,42.85 C171.295668,43.4384679 170.622455,43.7936203 169.9,43.8075 C168.5,43.8075 167.5,42.75 167.5,41.025 C167.5,39.3 168.48,38.2325 169.8925,38.2325 C170.614027,38.2382525 171.289024,38.5896969 171.7075,39.1775 L171.7075,38.365 L172.5425,38.365 L172.5425,43.6625 C172.5425,45.365 171.2925,45.9125 169.9725,45.9125 C169.075,45.9225 168.4525,45.75 167.8075,45.11 L167.8075,45.12 Z M171.715,42.205 L171.715,39.845 C171.345236,39.323256 170.751728,39.0056686 170.1125,38.9875 C169.0225,38.9875 168.3775,39.845 168.3775,41.035 C168.3775,42.225 169.0225,43.0725 170.1125,43.0725 C170.756201,43.0528878 171.351751,42.7267755 171.715,42.195 L171.715,42.205 Z M183.3775,43.75 L183.3775,37.15 L181.03,37.15 L181.03,36.3275 L186.6625,36.3275 L186.6625,37.15 L184.3,37.15 L184.3,43.75 L183.3775,43.75 Z M188.4625,41.0575 C188.4625,39.5 189.4875,38.2425 191.1225,38.2425 C192.7575,38.2425 193.7825,39.4925 193.7825,41.0575 C193.7825,42.6225 192.75,43.875 191.1225,43.875 C189.495,43.875 188.4625,42.605 188.4625,41.0475 L188.4625,41.0575 Z M192.9025,41.0575 C192.9025,39.9675 192.2675,38.9875 191.1225,38.9875 C189.9775,38.9875 189.3425,39.9675 189.3425,41.0575 C189.3425,42.1475 189.9775,43.14 191.1225,43.14 C192.2675,43.14 192.9025,42.15 192.9025,41.0475 L192.9025,41.0575 Z M197.03,41.0575 C197.03,39.5 198.055,38.2425 199.69,38.2425 C201.325,38.2425 202.35,39.4925 202.35,41.0575 C202.35,42.6225 201.325,43.885 199.69,43.885 C198.055,43.885 197.0325,42.605 197.0325,41.0475 L197.03,41.0575 Z M201.47,41.0575 C201.47,39.9675 200.835,38.9875 199.69,38.9875 C198.545,38.9875 197.91,39.9675 197.91,41.0575 C197.91,42.1475 198.545,43.14 199.69,43.14 C200.835,43.14 201.4725,42.15 201.4725,41.0475 L201.47,41.0575 Z M205.9125,43.75 L205.9125,36.325 L206.75,36.325 L206.75,43.75 L205.9125,43.75 Z M210.1625,43.0375 L210.585,42.4375 C211.044166,42.9261174 211.684494,43.2037739 212.355,43.205 C213.1775,43.205 213.635,42.815 213.635,42.28 C213.635,40.9775 210.3075,41.78 210.3075,39.78 C210.3075,38.935 211.02,38.2325 212.3075,38.2325 C213.053675,38.2027814 213.778465,38.4854496 214.3075,39.0125 L213.9175,39.59 C213.508634,39.1396737 212.922955,38.8911486 212.315,38.91 C211.58,38.91 211.125,39.2775 211.125,39.755 C211.125,40.925 214.4525,40.155 214.4525,42.255 C214.4525,43.155 213.73,43.88 212.3475,43.88 C211.531307,43.9180689 210.737251,43.6082595 210.1625,43.0275 L210.1625,43.0375 Z" transform="translate(23 4)"/>
</svg>
