<svg xmlns="http://www.w3.org/2000/svg" width="165" height="32" viewBox="0 0 165 32">
  <g fill="none" fill-rule="evenodd" transform="translate(0 2)">
    <path fill="#FF3B30" d="M61.8314969,7.64510156 C63.0671801,9.29550044 63.6850125,11.407133 63.6850125,13.9800625 C63.6850125,16.7645816 62.9783138,19.0793371 61.5648953,20.9243984 C59.9060329,23.0910759 57.5404966,24.1743984 54.4682156,24.1743984 C51.5990607,24.1743984 49.3435494,23.2264912 47.7016141,21.3306484 C46.237414,19.5025143 45.505325,17.1919905 45.505325,14.3990078 C45.505325,11.8768598 46.1316208,9.71867824 47.3842312,7.92439844 C48.9923122,5.62230359 51.3705436,4.47127344 54.5189969,4.47127344 C57.811331,4.47127344 60.2488067,5.52920557 61.8314969,7.64510156 Z M59.6034695,19.5215664 C60.5979406,17.9261808 61.0951687,16.0917265 61.0951687,14.0181484 C61.0951687,11.8260802 60.5217695,10.0614494 59.3749539,8.72420312 C58.2281383,7.38695686 56.6602829,6.71834375 54.6713406,6.71834375 C52.7416435,6.71834375 51.1674405,7.38060926 49.9486844,8.70516016 C48.7299283,10.029711 48.1205594,11.9826538 48.1205594,14.5640469 C48.1205594,16.6291614 48.6431778,18.3705177 49.6884305,19.788168 C50.7336831,21.2058183 52.4284904,21.9146328 54.7729031,21.9146328 C56.9988257,21.9146328 58.6089984,21.116952 59.6034695,19.5215664 Z M67.4555203,5.88045312 C67.9887261,5.1018034 69.0170361,4.71248437 70.5404812,4.71248437 C70.6843622,4.71248437 70.8324727,4.7167161 70.9848172,4.72517969 C71.1371617,4.73364327 71.3106626,4.74633846 71.505325,4.76326562 L71.505325,6.84529687 C71.2683446,6.82836971 71.0969596,6.81779039 70.9911648,6.81355859 C70.88537,6.8093268 70.7859244,6.80721094 70.692825,6.80721094 C69.9988111,6.80721094 69.5841017,6.9870594 69.4486844,7.34676172 C69.313267,7.70646404 69.2455594,8.62263326 69.2455594,10.0952969 L71.505325,10.0952969 L71.505325,11.8980312 L69.2201687,11.8980312 L69.2201687,23.6285 L66.9604031,23.6285 L66.9604031,11.8980312 L65.0688016,11.8980312 L65.0688016,10.0952969 L66.9604031,10.0952969 L66.9604031,7.96248437 C66.9942575,7.01456297 67.1592949,6.32055949 67.4555203,5.88045312 Z M74.2221219,5.88045312 C74.7553277,5.1018034 75.7836377,4.71248437 77.3070828,4.71248437 C77.4509637,4.71248437 77.5990742,4.7167161 77.7514187,4.72517969 C77.9037633,4.73364327 78.0772641,4.74633846 78.2719266,4.76326562 L78.2719266,6.84529687 C78.0349462,6.82836971 77.8635612,6.81779039 77.7577664,6.81355859 C77.6519716,6.8093268 77.552526,6.80721094 77.4594266,6.80721094 C76.7654127,6.80721094 76.3507033,6.9870594 76.2152859,7.34676172 C76.0798686,7.70646404 76.0121609,8.62263326 76.0121609,10.0952969 L78.2719266,10.0952969 L78.2719266,11.8980312 L75.9867703,11.8980312 L75.9867703,23.6285 L73.7270047,23.6285 L73.7270047,11.8980312 L71.8354031,11.8980312 L71.8354031,10.0952969 L73.7270047,10.0952969 L73.7270047,7.96248437 C73.760859,7.01456297 73.9258964,6.32055949 74.2221219,5.88045312 Z"/>
    <path fill="#4CD964" d="M104.331497,7.64510156 C105.56718,9.29550044 106.185012,11.407133 106.185012,13.9800625 C106.185012,16.7645816 105.478314,19.0793371 104.064895,20.9243984 C102.406033,23.0910759 100.040497,24.1743984 96.9682156,24.1743984 C94.0990607,24.1743984 91.8435494,23.2264912 90.2016141,21.3306484 C88.737414,19.5025143 88.005325,17.1919905 88.005325,14.3990078 C88.005325,11.8768598 88.6316208,9.71867824 89.8842312,7.92439844 C91.4923122,5.62230359 93.8705436,4.47127344 97.0189969,4.47127344 C100.311331,4.47127344 102.748807,5.52920557 104.331497,7.64510156 Z M102.10347,19.5215664 C103.097941,17.9261808 103.595169,16.0917265 103.595169,14.0181484 C103.595169,11.8260802 103.02177,10.0614494 101.874954,8.72420312 C100.728138,7.38695686 99.1602829,6.71834375 97.1713406,6.71834375 C95.2416435,6.71834375 93.6674405,7.38060926 92.4486844,8.70516016 C91.2299283,10.029711 90.6205594,11.9826538 90.6205594,14.5640469 C90.6205594,16.6291614 91.1431778,18.3705177 92.1884305,19.788168 C93.2336831,21.2058183 94.9284904,21.9146328 97.2729031,21.9146328 C99.4988257,21.9146328 101.108998,21.116952 102.10347,19.5215664 Z M108.889114,10.0318203 L111.060012,10.0318203 L111.060012,11.9615078 C111.703245,11.1659309 112.384553,10.5946476 113.103958,10.2476406 C113.823362,9.90063368 114.623159,9.72713281 115.503372,9.72713281 C117.433069,9.72713281 118.736441,10.3999776 119.413528,11.7456875 C119.785926,12.4820193 119.972122,13.5357197 119.972122,14.9068203 L119.972122,23.6285 L117.64888,23.6285 L117.64888,15.0591641 C117.64888,14.2297328 117.52616,13.5611197 117.280716,13.0533047 C116.874464,12.2069463 116.138143,11.7837734 115.071731,11.7837734 C114.530062,11.7837734 114.08573,11.8387859 113.738723,11.9488125 C113.112418,12.1350113 112.562294,12.5074035 112.088333,13.066 C111.707472,13.51457 111.459915,13.9779442 111.345657,14.4561367 C111.231399,14.9343292 111.17427,15.6177534 111.17427,16.5064297 L111.17427,23.6285 L108.889114,23.6285 L108.889114,10.0318203 Z"/>
    <path fill="#000000" fill-opacity=".38" d="M1.71386719 24L1.71386719 10.5175781 3.77050781 10.5175781 3.77050781 12.4345703C4.76074714 10.9534431 6.19107138 10.2128906 8.06152344 10.2128906 8.8740275 10.2128906 9.62092758 10.3588853 10.3022461 10.6508789 10.9835646 10.9428726 11.4934879 11.325844 11.8320312 11.7998047 12.1705746 12.2737654 12.4075514 12.8365853 12.5429688 13.4882812 12.6276046 13.9114604 12.6699219 14.6520129 12.6699219 15.7099609L12.6699219 24 10.3847656 24 10.3847656 15.7988281C10.3847656 14.8678339 10.2958993 14.1717145 10.1181641 13.7104492 9.9404288 13.2491839 9.62516502 12.8810235 9.17236328 12.605957 8.71956154 12.3308906 8.18847961 12.1933594 7.57910156 12.1933594 6.6057894 12.1933594 5.76579129 12.5022756 5.05908203 13.1201172 4.35237277 13.7379588 3.99902344 14.9101476 3.99902344 16.6367188L3.99902344 24 1.71386719 24zM14.4599609 24.3173828L19.8554688 5.07128906 21.6835938 5.07128906 16.3007812 24.3173828 14.4599609 24.3173828zM32.1953125 22.3369141C31.3489541 23.0563187 30.5343464 23.5641261 29.7514648 23.8603516 28.9685833 24.156577 28.1285852 24.3046875 27.2314453 24.3046875 25.7503181 24.3046875 24.6119831 23.9428747 23.8164062 23.2192383 23.0208294 22.4956019 22.6230469 21.5709692 22.6230469 20.4453125 22.6230469 19.7851529 22.7732732 19.1821316 23.0737305 18.6362305 23.3741877 18.0903293 23.7677385 17.6523454 24.2543945 17.3222656 24.7410506 16.9921858 25.2890595 16.7425139 25.8984375 16.5732422 26.3470075 16.454752 27.024084 16.3404953 27.9296875 16.2304688 29.7747488 16.0104156 31.1331337 15.7480484 32.0048828 15.4433594 32.0133464 15.1302068 32.0175781 14.9313155 32.0175781 14.8466797 32.0175781 13.9156854 31.80176 13.2597675 31.3701172 12.8789062 30.7861299 12.3626276 29.9186255 12.1044922 28.7675781 12.1044922 27.692703 12.1044922 26.8992539 12.2928041 26.387207 12.6694336 25.8751602 13.0460631 25.4964205 13.7125603 25.2509766 14.6689453L23.0166016 14.3642578C23.2197276 13.4078728 23.5540341 12.6355824 24.0195312 12.0473633 24.4850284 11.4591442 25.1578732 11.0063492 26.0380859 10.6889648 26.9182987 10.3715804 27.9381452 10.2128906 29.0976562 10.2128906 30.2487037 10.2128906 31.1839157 10.3483059 31.9033203 10.6191406 32.622725 10.8899753 33.151691 11.2306295 33.4902344 11.6411133 33.8287777 12.0515971 34.0657545 12.5699838 34.2011719 13.1962891 34.2773441 13.5856139 34.3154297 14.2880809 34.3154297 15.3037109L34.3154297 18.3505859C34.3154297 20.4749455 34.3640946 21.8185193 34.4614258 22.3813477 34.558757 22.944176 34.7513006 23.4837214 35.0390625 24L32.6523438 24C32.4153634 23.5260393 32.2630212 22.9716829 32.1953125 22.3369141zM32.0048828 17.2333984C31.1754516 17.5719418 29.9313234 17.8596993 28.2724609 18.0966797 27.3330031 18.232097 26.6686217 18.3844393 26.2792969 18.5537109 25.889972 18.7229826 25.5895193 18.9705387 25.3779297 19.2963867 25.1663401 19.6222347 25.0605469 19.9840475 25.0605469 20.3818359 25.0605469 20.991214 25.2911761 21.4990214 25.7524414 21.9052734 26.2137067 22.3115255 26.8886674 22.5146484 27.7773438 22.5146484 28.6575565 22.5146484 29.4404263 22.3221048 30.1259766 21.9370117 30.8115269 21.5519186 31.3151026 21.0250684 31.6367188 20.3564453 31.8821627 19.8401667 32.0048828 19.0784556 32.0048828 18.0712891L32.0048828 17.2333984zM129.713867 24L129.713867 10.5175781 131.770508 10.5175781 131.770508 12.4345703C132.760747 10.9534431 134.191071 10.2128906 136.061523 10.2128906 136.874028 10.2128906 137.620928 10.3588853 138.302246 10.6508789 138.983565 10.9428726 139.493488 11.325844 139.832031 11.7998047 140.170575 12.2737654 140.407551 12.8365853 140.542969 13.4882812 140.627605 13.9114604 140.669922 14.6520129 140.669922 15.7099609L140.669922 24 138.384766 24 138.384766 15.7988281C138.384766 14.8678339 138.295899 14.1717145 138.118164 13.7104492 137.940429 13.2491839 137.625165 12.8810235 137.172363 12.605957 136.719562 12.3308906 136.18848 12.1933594 135.579102 12.1933594 134.605789 12.1933594 133.765791 12.5022756 133.059082 13.1201172 132.352373 13.7379588 131.999023 14.9101476 131.999023 16.6367188L131.999023 24 129.713867 24zM142.459961 24.3173828L147.855469 5.07128906 149.683594 5.07128906 144.300781 24.3173828 142.459961 24.3173828zM160.195312 22.3369141C159.348954 23.0563187 158.534346 23.5641261 157.751465 23.8603516 156.968583 24.156577 156.128585 24.3046875 155.231445 24.3046875 153.750318 24.3046875 152.611983 23.9428747 151.816406 23.2192383 151.020829 22.4956019 150.623047 21.5709692 150.623047 20.4453125 150.623047 19.7851529 150.773273 19.1821316 151.07373 18.6362305 151.374188 18.0903293 151.767738 17.6523454 152.254395 17.3222656 152.741051 16.9921858 153.289059 16.7425139 153.898438 16.5732422 154.347007 16.454752 155.024084 16.3404953 155.929688 16.2304688 157.774749 16.0104156 159.133134 15.7480484 160.004883 15.4433594 160.013346 15.1302068 160.017578 14.9313155 160.017578 14.8466797 160.017578 13.9156854 159.80176 13.2597675 159.370117 12.8789062 158.78613 12.3626276 157.918626 12.1044922 156.767578 12.1044922 155.692703 12.1044922 154.899254 12.2928041 154.387207 12.6694336 153.87516 13.0460631 153.49642 13.7125603 153.250977 14.6689453L151.016602 14.3642578C151.219728 13.4078728 151.554034 12.6355824 152.019531 12.0473633 152.485028 11.4591442 153.157873 11.0063492 154.038086 10.6889648 154.918299 10.3715804 155.938145 10.2128906 157.097656 10.2128906 158.248704 10.2128906 159.183916 10.3483059 159.90332 10.6191406 160.622725 10.8899753 161.151691 11.2306295 161.490234 11.6411133 161.828778 12.0515971 162.065755 12.5699838 162.201172 13.1962891 162.277344 13.5856139 162.31543 14.2880809 162.31543 15.3037109L162.31543 18.3505859C162.31543 20.4749455 162.364095 21.8185193 162.461426 22.3813477 162.558757 22.944176 162.751301 23.4837214 163.039062 24L160.652344 24C160.415363 23.5260393 160.263021 22.9716829 160.195312 22.3369141zM160.004883 17.2333984C159.175452 17.5719418 157.931323 17.8596993 156.272461 18.0966797 155.333003 18.232097 154.668622 18.3844393 154.279297 18.5537109 153.889972 18.7229826 153.589519 18.9705387 153.37793 19.2963867 153.16634 19.6222347 153.060547 19.9840475 153.060547 20.3818359 153.060547 20.991214 153.291176 21.4990214 153.752441 21.9052734 154.213707 22.3115255 154.888667 22.5146484 155.777344 22.5146484 156.657556 22.5146484 157.440426 22.3221048 158.125977 21.9370117 158.811527 21.5519186 159.315103 21.0250684 159.636719 20.3564453 159.882163 19.8401667 160.004883 19.0784556 160.004883 18.0712891L160.004883 17.2333984z"/>
  </g>
</svg>
