<?xml version="1.0" encoding="utf-8"?>
<!-- Generator: Adobe Illustrator 18.1.1, SVG Export Plug-In . SVG Version: 6.00 Build 0)  -->
<svg version="1.1" id="Layer_2" xmlns="http://www.w3.org/2000/svg" xmlns:xlink="http://www.w3.org/1999/xlink" x="0px" y="0px"
	 viewBox="0 0 20 20" enable-background="new 0 0 20 20" xml:space="preserve">
<g>
	<g id="layer1_2_" transform="translate(0,-1.53013)">
		<g id="g2111_1_" transform="translate(-94.947,-433.75)">
			<path id="path2117_1_" fill="#666666" d="M106,448c0,0.8-0.3,1.6-1.2,2.7c-0.9,1.1-1.7,1.8-2.7,2.6v-5c0.2-0.6,0.6-1.1,1-1.4
				c0.5-0.4,0.9-0.5,1.4-0.5c0.8,0,1.2,0.4,1.5,1.3C106,447.7,106,447.8,106,448z M105.9,444.5c-0.6,0-1.3,0.2-1.9,0.5
				c-0.7,0.3-1.3,0.8-1.9,1.4v-10.6h-0.8V454c0,0.5,0.1,0.8,0.4,0.8c0.2,0,0.4-0.1,0.7-0.3c0.9-0.5,1.4-0.9,2-1.2
				c0.7-0.4,1.4-0.9,2.4-1.8c0.7-0.7,1.2-1.4,1.5-2.1s0.5-1.4,0.5-2.1c0-1-0.3-1.7-0.8-2.1C107.2,444.7,106.6,444.5,105.9,444.5z"/>
		</g>
	</g>
</g>
</svg>
