<?xml version="1.0" encoding="utf-8"?>
<!-- Generator: Adobe Illustrator 18.1.1, SVG Export Plug-In . SVG Version: 6.00 Build 0)  -->
<svg version="1.1" id="Layer_2" xmlns="http://www.w3.org/2000/svg" xmlns:xlink="http://www.w3.org/1999/xlink" x="0px" y="0px"
	 viewBox="0 0 20 20" enable-background="new 0 0 20 20" xml:space="preserve">
<g>
	<g>
		<path fill="#666666" d="M12.6,13.8c0.6-0.7,1.7-1.6,3.2-2c0.2,0,0.2-0.1,0.3-0.1v-0.1c0-0.1-0.1-0.2-0.2-0.2l-0.1-0.1
			c-0.2-0.2-0.3-0.4-0.5-0.5c-0.1-0.2-0.5-1-0.9-1.7l-0.1-0.2C14,8.5,13.8,8,13.5,7.7c-0.5-0.8-1.2-1.5-1.9-2.1
			C10.3,4.5,8.8,4,7.1,4C6.8,4,6.5,4,6.3,4c-2,0.2-3.7,1.2-5,2.7c-2,2.5-1.6,6.2,0.9,8.2c0.8,0.7,1.8,1,2.9,1c0.6,0,1.2-0.1,1.7-0.3
			c0.7-0.3,1.4-0.8,1.9-1.4c0.6-0.8,0.9-1.7,0.8-2.7c-0.1-1-0.6-1.8-1.3-2.4C7.7,8.7,7,8.5,6.4,8.5c-0.9,0-1.7,0.4-2.2,1.1
			c-0.8,1-0.6,2.4,0.3,3.2c0.4,0.3,0.8,0.4,1.3,0.4c0.5-0.1,0.9-0.3,1.2-0.6c0.5-0.6,0.4-1.4-0.2-1.9c-0.2-0.2-0.5-0.3-0.8-0.2
			c-0.3,0-0.5,0.2-0.7,0.4l0,0H5.2c-0.1,0-0.1,0-0.2-0.1s-0.1-0.2-0.1-0.2l0,0c0.2-0.3,0.6-0.5,1-0.5s0.8,0.1,1.1,0.3
			c0.8,0.6,0.9,1.8,0.3,2.5c-0.4,0.5-0.9,0.7-1.5,0.8s-1.2-0.1-1.6-0.5c-1.2-1.1-1.4-2.8-0.4-4C4.4,8.5,5.3,8,6.4,8
			c0.8,0,1.5,0.3,2.1,0.7c0.9,0.7,1.4,1.7,1.5,2.7c0.1,1.1-0.2,2.2-0.9,3c-0.2,0.3-0.4,0.5-0.7,0.7c0,0-0.1,0.1-0.2,0.1
			c-0.1,0.1-0.4,0.3-0.5,0.4l0,0c0.1,0.1,0.4,0.2,0.8,0.2l0,0c0.8,0,1.5-0.2,2.2-0.6C11.5,14.9,12.2,14.2,12.6,13.8z"/>
		<path fill="#666666" d="M19.2,10.1c-0.1-0.1-0.4-0.7-0.5-0.9c-0.2-0.4-0.2-1-0.1-1.6V7.4c0-0.2,0.1-0.3,0.1-0.5
			c0-0.1,0-0.2-0.1-0.3c-0.1,0-0.2-0.1-0.3,0l0,0v-2c0.1,0,0.2-0.2,0.2-0.3c0-0.2-0.2-0.3-0.3-0.3c-0.2,0-0.3,0.1-0.3,0.3
			c0,0.1,0.1,0.3,0.2,0.3v2.1C18,6.9,17.9,7,17.8,7h-0.1l-0.1,0.1h-0.1V5.6c0.1,0,0.2-0.2,0.2-0.3c0-0.2-0.2-0.3-0.3-0.3
			c-0.2,0-0.3,0.2-0.3,0.3c0,0.1,0.1,0.3,0.2,0.3v1.8c-0.2,0.2-0.3,0.5-0.4,0.8c-0.1,0.4-0.1,0.7,0,1.1c0,0.1,0,0.2,0.1,0.4
			c0,0.2,0.1,0.4,0.1,0.6l0,0c0,0.2,0,1-0.5,1.5c-0.2,0.2-0.4,0.2-0.7,0.3c-0.2,0-0.3,0.1-0.5,0.1c-0.2,0.1-0.5,0.2-0.8,0.4
			c-0.5,0.3-1,0.7-1.5,1.2c-0.1,0.1-0.3,0.3-0.4,0.4c-0.3,0.4-0.6,0.7-0.9,0.9c-0.3,0.3-0.7,0.5-1.3,0.8l0,0c0.1,0,0.2,0,0.2,0
			c0.2,0,0.4,0,0.6,0c0.2,0,0.5,0,1,0l0,0c1.1,0,2.6,0,3.5-0.1c2-0.1,4.1-1.6,4.1-3.6C20,11.6,19.7,10.8,19.2,10.1z"/>
	</g>
</g>
</svg>
