<?xml version="1.0" encoding="utf-8"?>
<!-- Generator: Adobe Illustrator 18.1.1, SVG Export Plug-In . SVG Version: 6.00 Build 0)  -->
<svg version="1.1" id="Layer_1" xmlns="http://www.w3.org/2000/svg" xmlns:xlink="http://www.w3.org/1999/xlink" x="0px" y="0px"
	 viewBox="0 0 20 20" enable-background="new 0 0 20 20" xml:space="preserve">
<g>
	<g>
		<path fill="#666666" d="M1.7,6.7C1.2,6.4,0.7,6.2,0,5.9c0.5-0.7,1.9-0.8,3.3-0.6c1.9,0.2,3.9,0.9,4.5,1c1,0.2,2.3,0.7,3,0.6
			c0.3,0,0.4-0.2,0.5-0.5c0.2-0.5,0.2-1.2,0.4-1.8c0.3-1,1.3-1.3,2.1-1.1c0.6,0.1,0.8,0.4,1.8,0.5C17.4,3.9,20,3.9,20,3.9
			c-0.9,0.4-3.2,0.7-4,0.9c-0.9,0.2-1,1.6-1.2,2.8c-0.2,1.4-0.4,3-1.4,4.4s-2.2,1.5-3.2,1.5c-0.5,0-1.7,0.8-2.4,1.3
			c-0.8,0.6-2.4,2.1-2.7,1.7c-0.2-0.4,0.4-0.8,2-3c0.8-1.1,1.2-1.8,1.4-2.3s0.2-0.8,0.3-1.2C5.2,9.4,6.1,8.7,1.7,6.7z"/>
	</g>
</g>
</svg>
