<?xml version="1.0" encoding="utf-8"?>
<!-- Generator: Adobe Illustrator 18.1.1, SVG Export Plug-In . SVG Version: 6.00 Build 0)  -->
<svg version="1.1" id="Layer_2" xmlns="http://www.w3.org/2000/svg" xmlns:xlink="http://www.w3.org/1999/xlink" x="0px" y="0px"
	 viewBox="0 0 20 20" enable-background="new 0 0 20 20" xml:space="preserve">
<g>
	<g id="Layer_1_2_" display="none">
		<g display="inline">
			<g>
				<title>Layer 1</title>
				<rect id="svg_1_6_" x="0.5" y="6.2" fill="#666666" width="2.8" height="7.6"/>
				<polygon id="svg_2_6_" fill="#666666" points="10,17.6 4.3,13.8 4.3,6.2 10,2.4 				"/>
				<polygon id="svg_3_6_" fill="#666666" points="19.5,7.4 18.2,6.1 15.5,8.7 12.8,6.1 11.4,7.4 14.1,10 11.4,12.7 12.8,14 
					15.5,11.4 18.2,14 19.5,12.7 16.8,10 				"/>
			</g>
		</g>
	</g>
	<g id="Layer_2_2_" display="none">
		<g display="inline">
			<g>
				<title>Layer 1</title>
				<g id="svg_1_5_">
					<rect id="svg_2_5_" x="0.5" y="6.9" fill="#666666" width="2.9" height="7.1"/>
					<polygon id="svg_3_5_" fill="#666666" points="10.1,17.2 4.2,13.7 4.2,6.4 10.1,2.9 					"/>
					<path id="svg_4_4_" fill="#666666" d="M17.6,10c0,2.5-1,4.7-2.9,6.4l1.3,1.2c2.1-1.9,3.4-4.7,3.4-7.6S18.1,4.4,16,2.4l-1.3,1.2
						C16.5,5.3,17.6,7.6,17.6,10z"/>
					<path id="svg_5_4_" fill="#666666" d="M13.7,10c0,1.5-0.7,2.8-1.7,3.8l1.3,1.2c1.4-1.3,2.3-3,2.3-5s-0.9-3.8-2.3-5L12,6.2
						C13,7.2,13.7,8.5,13.7,10z"/>
				</g>
			</g>
		</g>
	</g>
	<g id="Layer_3_1_">
		<g>
			<g>
				<title>Layer 1</title>
				<g id="svg_1_4_">
					<rect id="svg_2_4_" x="0.5" y="6.6" fill="#666666" width="2.9" height="7.8"/>
					<polygon id="svg_3_4_" fill="#666666" points="10.2,18.3 4.4,14.4 4.4,6.6 10.2,2.7 					"/>
					<path id="svg_4_3_" fill="#666666" d="M17.6,10c0,2.7-1,5.1-2.9,6.8l1.3,1.3c2.1-2.1,3.4-5,3.4-8.3S18.1,3.7,16,1.5L14.7,3
						C16.5,4.9,17.6,7.4,17.6,10z"/>
					<path id="svg_5_3_" fill="#666666" d="M13.7,10c0,1.6-0.7,3-1.7,4.1l1.3,1.3c1.4-1.4,2.3-3.3,2.3-5.5s-0.9-4.1-2.3-5.5L12,5.8
						C13,7,13.7,8.4,13.7,10z"/>
				</g>
			</g>
		</g>
	</g>
</g>
</svg>
