<?xml version="1.0" encoding="UTF-8"?>
<svg width="24px" height="24px" viewBox="0 0 24 24" version="1.1" xmlns="http://www.w3.org/2000/svg" xmlns:xlink="http://www.w3.org/1999/xlink">
    <!-- Generator: sketchtool 48.2 (47327) - http://www.bohemiancoding.com/sketch -->
    <title>AFEAE0DD-93A6-4EEF-B0DA-8EBEA6C86313</title>
    <desc>Created with sketchtool.</desc>
    <defs></defs>
    <g id="Symbols" stroke="none" stroke-width="1" fill="none" fill-rule="evenodd">
        <g id="ic-gif-dark-24">
            <g id="ic-png-24">
                <g>
                    <rect id="Combined-Shape" fill="#5A5A5A" x="0" y="2" width="24" height="19" rx="2"></rect>
                    <path d="M10.6337891,14.1914062 C10.3964832,14.4755874 10.0610373,14.6960441 9.62744141,14.8527832 C9.19384549,15.0095223 8.71338154,15.0878906 8.18603516,15.0878906 C7.63232145,15.0878906 7.1467306,14.9670422 6.72924805,14.7253418 C6.31176549,14.4836414 5.98950309,14.1328148 5.76245117,13.6728516 C5.53539926,13.2128883 5.41894534,12.6723664 5.41308594,12.0512695 L5.41308594,11.6162109 C5.41308594,10.9775359 5.52075088,10.4245629 5.73608398,9.95727539 C5.95141709,9.4899879 6.26196086,9.1325696 6.66772461,8.88500977 C7.07348836,8.63744993 7.5488254,8.51367188 8.09375,8.51367188 C8.85254286,8.51367188 9.44579864,8.69457827 9.87353516,9.05639648 C10.3012717,9.4182147 10.5546871,9.94482076 10.6337891,10.6362305 L9.35058594,10.6362305 C9.29199189,10.2700177 9.16235452,10.001954 8.96166992,9.83203125 C8.76098532,9.66210853 8.48486504,9.57714844 8.13330078,9.57714844 C7.68505635,9.57714844 7.34375117,9.74560378 7.109375,10.0825195 C6.87499883,10.4194353 6.75634767,10.9204068 6.75341797,11.5854492 L6.75341797,11.9941406 C6.75341797,12.6650424 6.8808581,13.1718733 7.13574219,13.5146484 C7.39062627,13.8574236 7.7641577,14.0288086 8.25634766,14.0288086 C8.75146732,14.0288086 9.10449113,13.9233409 9.31542969,13.7124023 L9.31542969,12.609375 L8.11572266,12.609375 L8.11572266,11.6381836 L10.6337891,11.6381836 L10.6337891,14.1914062 Z M12.6035156,15 L11.2851562,15 L11.2851562,8.6015625 L12.6035156,8.6015625 L12.6035156,15 Z M17.1748047,12.3852539 L14.6435547,12.3852539 L14.6435547,15 L13.3251953,15 L13.3251953,8.6015625 L17.4912109,8.6015625 L17.4912109,9.66943359 L14.6435547,9.66943359 L14.6435547,11.3217773 L17.1748047,11.3217773 L17.1748047,12.3852539 Z" id="GIF" fill="#FFFFFF"></path>
                </g>
            </g>
        </g>
    </g>
</svg>