<?xml version="1.0" encoding="UTF-8"?>
<svg width="22px" height="22px" viewBox="0 0 22 22" version="1.1" xmlns="http://www.w3.org/2000/svg" xmlns:xlink="http://www.w3.org/1999/xlink">
    <!-- Generator: sketchtool 48.2 (47327) - http://www.bohemiancoding.com/sketch -->
    <title>A7EA1EDB-B6E1-4B8D-BC28-3417DE251E8A</title>
    <desc>Created with sketchtool.</desc>
    <defs></defs>
    <g id="billing-page-step1" stroke="none" stroke-width="1" fill="none" fill-rule="evenodd" transform="translate(-429.000000, -654.000000)">
        <g id="ic_support_dark_22" transform="translate(429.000000, 654.000000)">
            <g>
                <rect id="Rectangle-2" x="0" y="0" width="22" height="22"></rect>
                <path d="M11,17 C14.3137085,17 17,14.3137085 17,11 C17,7.6862915 14.3137085,5 11,5 C7.6862915,5 5,7.6862915 5,11 C5,14.3137085 7.6862915,17 11,17 Z M2.41973385,17.8838712 C0.905826925,15.9993126 0,13.6054399 0,11 C0,8.3068687 0.967827939,5.83978573 2.57464984,3.92758505 L6,7 L7.5,5.5 L4.78898919,1.92000322 C6.55644308,0.708681845 8.69546078,0 11,0 C13.3538943,0 15.5351014,0.739361801 17.3240553,1.99851947 L14.6725022,5.5 L16.1725022,7 L19.4990413,4.01621504 C21.0617163,5.91573391 22,8.34829301 22,11 C22,13.5639889 21.1227662,15.9230888 19.6520594,17.7935389 L16.1725022,14.6725022 L14.6725022,16.1725022 L17.4847604,19.8862002 C15.6664465,21.2153912 13.4248508,22 11,22 C8.62450466,22 6.42488047,21.2470061 4.62679371,19.9666845 L7.5,16.1725022 L6,14.6725022 L2.41973385,17.8838712 Z" id="Combined-Shape" fill="#5A5A5A" fill-rule="nonzero"></path>
            </g>
        </g>
    </g>
</svg>