<svg xmlns="http://www.w3.org/2000/svg" width="22" height="22" viewBox="0 0 22 22">
    <g fill="none" fill-rule="evenodd">
        <path d="M0 0h22v22H0z"/>
        <path fill="#5A5A5A" d="M16.097 14.152a4.125 4.125 0 1 1-1.945 1.945l-3.155-3.155-3.149 3.155a4.125 4.125 0 1 1-1.945-1.945l3.15-3.155L.118 2.063 2.063.117l8.933 8.933L19.973.06l1.946 1.943-8.979 8.994 3.157 3.156zM4.125 19.25a1.375 1.375 0 1 0 0-2.75 1.375 1.375 0 0 0 0 2.75zm13.75 0a1.375 1.375 0 1 0 0-2.75 1.375 1.375 0 0 0 0 2.75z"/>
    </g>
</svg>
