<?xml version="1.0" encoding="UTF-8"?>
<svg width="16px" height="16px" viewBox="0 0 16 16" version="1.1" xmlns="http://www.w3.org/2000/svg" xmlns:xlink="http://www.w3.org/1999/xlink">
    <!-- Generator: sketchtool 50 (54983) - http://www.bohemiancoding.com/sketch -->
    <title>387F470C-88EB-4A39-B6FB-35C8B9028D65</title>
    <desc>Created with sketchtool.</desc>
    <defs></defs>
    <g id="video-editor" stroke="none" stroke-width="1" fill="none" fill-rule="evenodd">
        <g id="video-editor-timeline" transform="translate(-607.000000, -692.000000)">
            <g id="timeline" transform="translate(0.000000, 667.000000)">
                <g id="icons" transform="translate(22.000000, 18.000000)">
                    <g id="ic-text-add-16" transform="translate(585.000000, 7.000000)">
                        <g id="ic-draw-text">
                            <g>
                                <rect id="bounds" x="0" y="0" width="16" height="16"></rect>
                                <rect id="Rectangle-13" fill="#FFFFFF" x="2" y="7" width="1" height="5"></rect>
                                <rect id="Rectangle-13" fill="#FFFFFF" transform="translate(2.500000, 9.500000) rotate(90.000000) translate(-2.500000, -9.500000) " x="2" y="7" width="1" height="5"></rect>
                                <path d="M16,2 L16,4 L14,4 L14,2 L9,2 L9,14 L13,14 L13,16 L3,16 L3,14 L7,14 L7,2 L2,2 L2,4 L0,4 L0,2 L0,0 L16,0 L16,2 Z" id="Combined-Shape" fill="#FFFFFF"></path>
                            </g>
                        </g>
                    </g>
                </g>
            </g>
        </g>
    </g>
</svg>