<svg xmlns="http://www.w3.org/2000/svg" width="24" height="24" viewBox="0 0 24 24">
    <g fill="none" fill-rule="evenodd">
        <path d="M0 0h24v24H0z"/>
        <path fill="#5A5A5A" fill-rule="nonzero" d="M18 12a6 6 0 1 0-12 0 6 6 0 0 0 12 0zM5 12a7 7 0 1 1 14 0 7 7 0 0 1-14 0z"/>
        <circle cx="12" cy="12" r="9.5" stroke="#5A5A5A"/>
        <path stroke="#5A5A5A" stroke-linecap="round" d="M12.458 9.5c.837-.667 1.851-1 3.042-1 1.786 0 3.229 1.89 4 2 .514.073 1.528-.26 3.042-1M12.458 12.5c.837-.667 1.851-1 3.042-1 1.786 0 3.229 1.89 4 2 .514.073 1.528-.26 3.042-1M12.458 15.5c.837-.667 1.851-1 3.042-1 1.786 0 3.229 1.89 4 2 .514.073 1.528-.26 3.042-1"/>
    </g>
</svg>
