<svg xmlns="http://www.w3.org/2000/svg" width="24" height="24" viewBox="0 0 24 24">
    <g fill="none" fill-rule="evenodd">
        <path d="M0 0h24v24H0z"/>
        <path fill="#5A5A5A" fill-rule="nonzero" d="M12 21a9 9 0 1 0 0-18 9 9 0 0 0 0 18zm0 1C6.477 22 2 17.523 2 12S6.477 2 12 2s10 4.477 10 10-4.477 10-10 10z"/>
        <path fill="#5A5A5A" fill-rule="nonzero" d="M12 16a4 4 0 1 0 0-8 4 4 0 0 0 0 8zm0 1a5 5 0 1 1 0-10 5 5 0 0 1 0 10z"/>
        <circle cx="17" cy="7" r="1" fill="#5A5A5A"/>
        <path fill="#5A5A5A" fill-rule="nonzero" d="M12 8.5v1A2.5 2.5 0 0 0 9.5 12h-1A3.5 3.5 0 0 1 12 8.5z"/>
        <circle cx="12" cy="12" r="1" fill="#5A5A5A"/>
    </g>
</svg>
