<svg xmlns="http://www.w3.org/2000/svg" width="22" height="22" viewBox="0 0 22 22">
    <g fill="none" fill-rule="evenodd">
        <path fill="#5A5A5A" d="M5.69 17.828c-1.157-.49-.976-1.916-1.834-2.79-.859-.875-2.683-1.147-3.134-2.265-.452-1.119 1.097-2.444 1.107-3.625C1.839 7.966.293 6.842.783 5.686 1.274 4.53 2.7 4.71 3.573 3.852 4.449 2.994 4.72 1.17 5.839.718c1.119-.452 2.199.49 3.38.5C10.4 1.229 11.77.29 12.925.78c1.156.49 1.402 2.097 2.26 2.971.859.875 2.256.966 2.708 2.084.452 1.119-.671 2.625-.681 3.806-.01 1.182 1.11 2.125.619 3.281-.49 1.156-2.342.794-3.216 1.653-.875.858-.72 2.863-1.839 3.315-1.118.452-2.624-.672-3.806-.681-1.182-.01-2.125 1.11-3.28.619z"/>
        <path fill="#FFF" d="M9.5 15a5.5 5.5 0 1 1 0-11 5.5 5.5 0 0 1 0 11zm0-.846a4.654 4.654 0 1 0 0-9.308 4.654 4.654 0 0 0 0 9.308z"/>
        <path stroke="#5A5A5A" stroke-linecap="round" d="M6.5 20.5h14M18.3 9.5h2.4M16.5 2.5h4M15.5 16.5h5.3"/>
    </g>
</svg>
